<?xml version="1.0" encoding="UTF-8"?>
<svg id="_图层_2" data-name="图层_2" xmlns="http://www.w3.org/2000/svg" viewBox="0 0 74.6 33.9">
  <defs>
    <style>
      .cls-1 {
        fill: #f6821f;
      }

      .cls-2 {
        fill: #fbad41;
      }
    </style>
  </defs>
  <g id="_图层_1-2" data-name="图层_1">
    <g>
      <path class="cls-1" d="M50.94,33.42l.38-1.33c.46-1.57.29-3.04-.48-4.11-.7-.99-1.87-1.56-3.29-1.64l-26.91-.34c-.18,0-.33-.09-.42-.23-.09-.14-.12-.32-.05-.49.09-.26.35-.47.62-.48l27.15-.34c3.22-.14,6.7-2.78,7.93-5.98l1.55-4.07c.05-.11.06-.23.06-.34,0-.06,0-.13-.02-.19-1.75-7.95-8.81-13.89-17.24-13.89-7.78,0-14.38,5.05-16.75,12.05-1.53-1.15-3.48-1.76-5.59-1.56-3.73.37-6.73,3.39-7.1,7.14-.1.98-.02,1.91.21,2.79-6.09.18-10.98,5.2-10.98,11.36,0,.56.04,1.1.12,1.65.04.26.26.45.52.45h49.67s0,0,.02,0c.28,0,.53-.2.61-.48Z"/>
      <path class="cls-2" d="M59.9,14.72c-.25,0-.5,0-.75.02-.04,0-.08,0-.12.03-.13.05-.23.15-.27.29l-1.06,3.67c-.46,1.57-.29,3.04.48,4.11.7.99,1.87,1.56,3.29,1.64l5.73.34c.17,0,.32.09.4.23.1.14.12.32.06.49-.09.26-.35.47-.62.48l-5.96.34c-3.23.15-6.72,2.78-7.95,5.98l-.43,1.13c-.08.21.07.43.28.43h20.53c.24,0,.46-.16.53-.4.36-1.28.55-2.61.55-4.01,0-8.15-6.59-14.77-14.7-14.77Z"/>
    </g>
  </g>
</svg>