<?xml version="1.0" encoding="UTF-8"?>
<svg id="_图层_2" data-name="图层_2" xmlns="http://www.w3.org/2000/svg" xmlns:xlink="http://www.w3.org/1999/xlink" viewBox="0 0 28 28">
  <defs>
    <style>
      .cls-1 {
        fill: url(#_未命名的渐变);
      }
    </style>
    <linearGradient id="_未命名的渐变" data-name="未命名的渐变" x1="4.47" y1="27.36" x2="21.94" y2="6.53" gradientTransform="translate(0 30) scale(1 -1)" gradientUnits="userSpaceOnUse">
      <stop offset="0" stop-color="#0df"/>
      <stop offset="1" stop-color="#0c60f2"/>
    </linearGradient>
  </defs>
  <g id="_图层_1-2" data-name="图层_1">
    <path class="cls-1" d="M27.78,16.49c.15-.81.22-1.64.22-2.49,0-.72-.05-1.43-.16-2.12-.04-.27-.27-.46-.54-.46h-9c-.29,0-.51-.28-.43-.56l1.07-3.98c.08-.29.34-.5.65-.5h5.35c.36,0,.57-.39.36-.68C22.73,2.25,18.63,0,14,0,6.27,0,0,6.27,0,14c0,3.52,1.3,6.74,3.44,9.2.23.26.65.15.74-.18l3.1-11.62c.06-.21-.1-.42-.32-.42h-2.69c-.29,0-.51-.28-.43-.56l.87-3.28c.07-.25.29-.42.54-.42,2.93-.06,5.83-.83,8.4-2.23.27-.15.59.1.51.39l-5.7,21.37c-.09.32.07.65.38.78,1.6.63,3.34.98,5.16.98,4.42,0,8.36-2.05,10.93-5.25.23-.28.02-.69-.34-.69h-9.14c-.29,0-.51-.28-.43-.56l1.07-3.98c.08-.29.34-.5.65-.5h10.41c.32,0,.59-.22.65-.53Z"/>
  </g>
</svg>